<svg width="43" height="43" viewBox="0 0 43 43" fill="none" xmlns="http://www.w3.org/2000/svg">
<path d="M21.5 38.8319C21.5 38.8319 19.654 35.2647 13.2153 22.772C11.9444 20.306 10.3379 18.1692 10.3379 15.2917C10.3379 9.12842 15.3348 4.13086 21.4988 4.13086V8.92536C21.4988 8.92536 15.253 9.23591 15.253 15.1353C15.253 21.0346 21.4988 21.559 21.4988 21.559L21.5 38.8319Z" fill="#D0CFCE"/>
<path d="M21.4844 38.8295C21.4844 38.8295 23.2749 35.236 29.7691 22.769C31.0012 20.4034 32.6459 18.1668 32.6459 15.2894C32.6459 9.12489 27.649 4.12793 21.485 4.12793L21.3154 8.92482C21.3154 8.92482 27.9906 9.08428 27.8897 15.336C27.7893 21.5877 21.3154 21.5585 21.3154 21.5585L21.4844 38.8295Z" fill="#D0CFCE"/>
<path d="M21.9946 4.50738C21.9946 4.50738 27.8175 6.91777 29.0651 13.6365C30.2829 20.194 23.5904 31.6529 21.7987 37.4263C20.3069 42.2333 28.8322 24.6804 31.727 18.6711C32.4317 17.2091 32.6885 15.5667 32.4126 13.9674C31.7849 10.3303 29.5961 4.39689 21.9946 4.50738Z" fill="#9B9B9A"/>
<path d="M21.5004 21.5584C24.9891 21.5584 27.8172 18.7303 27.8172 15.2416C27.8172 11.7529 24.9891 8.9248 21.5004 8.9248C18.0117 8.9248 15.1836 11.7529 15.1836 15.2416C15.1836 18.7303 18.0117 21.5584 21.5004 21.5584Z" stroke="black" stroke-width="0.5" stroke-linecap="round" stroke-linejoin="round"/>
<path d="M21.5 38.8313C21.5 38.8313 19.654 35.2641 13.2153 22.7714C11.9444 20.3055 10.3379 18.1686 10.3379 15.2912C10.3379 9.12787 15.3348 4.13032 21.4988 4.13032M21.5012 38.8295C21.5012 38.8295 23.2916 35.236 29.7858 22.769C31.0185 20.4034 32.6633 18.1668 32.6633 15.2894C32.6633 9.12489 27.6657 4.12793 21.5018 4.12793" stroke="black" stroke-width="0.5" stroke-linecap="round" stroke-linejoin="round"/>
</svg>
