<svg width="84" height="27" viewBox="0 0 84 27" fill="none" xmlns="http://www.w3.org/2000/svg">
<path d="M8.25098 2.70801C6.69043 3.26139 5.51172 4.11914 4.71484 5.28125C3.92904 6.43229 3.53613 7.84342 3.53613 9.51465C3.53613 10.2451 3.61361 10.9147 3.76855 11.5234C3.93457 12.1211 4.16146 12.6081 4.44922 12.9844C2.98828 12.9844 1.91471 12.6911 1.22852 12.1045C0.542318 11.5068 0.199219 10.5716 0.199219 9.29883C0.199219 7.72721 0.67513 6.23861 1.62695 4.83301C2.53451 3.49382 3.76855 2.41471 5.3291 1.5957C6.93392 0.776693 8.66602 0.367188 10.5254 0.367188C11.0456 0.367188 11.4993 0.405924 11.8867 0.483398C12.2852 0.549805 12.7279 0.666016 13.2148 0.832031L17.3154 19.0273L21.1172 0.566406H24.4209L18.876 26H14.1777L10.2432 9.13281L6.3584 26H3.1377L8.25098 2.70801ZM29.2021 26.6143C28.1396 26.6143 27.21 26.4538 26.4131 26.1328C25.6162 25.8229 24.9577 25.3802 24.4375 24.8047C23.9395 24.2624 23.5632 23.6315 23.3086 22.9121C23.0651 22.1927 22.9434 21.429 22.9434 20.6211C22.9434 19.7246 23.0872 18.8115 23.375 17.8818C23.6628 16.9411 24.0778 16.0667 24.6201 15.2588C25.1735 14.4176 25.8376 13.6982 26.6123 13.1006C27.3981 12.5029 28.2725 12.0768 29.2354 11.8223C28.527 11.3132 28.0013 10.7044 27.6582 9.99609C27.3262 9.28776 27.1602 8.53516 27.1602 7.73828C27.1602 6.86393 27.3428 5.99512 27.708 5.13184C28.0843 4.25749 28.6045 3.47168 29.2686 2.77441C29.9548 2.04395 30.7516 1.47396 31.6592 1.06445C32.5778 0.64388 33.5628 0.433594 34.6143 0.433594C35.2894 0.433594 35.9258 0.527669 36.5234 0.71582C37.1211 0.892904 37.6357 1.15853 38.0674 1.5127C38.5212 1.87793 38.8698 2.32617 39.1133 2.85742C39.3568 3.38867 39.4785 3.9974 39.4785 4.68359C39.4785 5.18164 39.4121 5.64648 39.2793 6.07812C39.1465 6.50977 38.9639 6.88607 38.7314 7.20703C38.499 7.52799 38.2279 7.77702 37.918 7.9541C37.6081 8.13118 37.2871 8.21973 36.9551 8.21973C36.3353 8.21973 35.804 7.91536 35.3613 7.30664C35.5495 7.24023 35.7376 7.10742 35.9258 6.9082C36.1139 6.69792 36.2799 6.44889 36.4238 6.16113C36.5566 5.88444 36.6618 5.58561 36.7393 5.26465C36.8167 4.94368 36.8555 4.63379 36.8555 4.33496C36.8555 3.69303 36.6618 3.20052 36.2744 2.85742C35.9535 2.58073 35.5218 2.44238 34.9795 2.44238C34.4925 2.44238 34.0332 2.5752 33.6016 2.84082C33.1699 3.10645 32.7992 3.47168 32.4893 3.93652C32.1794 4.3903 31.9359 4.90495 31.7588 5.48047C31.5928 6.05599 31.5098 6.64258 31.5098 7.24023C31.5098 8.3138 31.7754 9.23796 32.3066 10.0127C32.8822 10.876 33.762 11.4681 34.9463 11.7891C33.7952 12.0436 32.7327 12.6302 31.7588 13.5488C30.8844 14.39 30.1816 15.4027 29.6504 16.5869C29.1302 17.7712 28.8701 18.8779 28.8701 19.9072C28.8701 20.9365 29.1191 21.75 29.6172 22.3477C30.1706 23.0117 30.9951 23.3438 32.0908 23.3438C32.6331 23.3438 33.2031 23.2718 33.8008 23.1279C34.4095 22.973 34.9906 22.7516 35.5439 22.4639C36.8278 21.8109 37.7741 20.9476 38.3828 19.874L39.1631 20.2227C38.2666 22.1816 36.8997 23.7422 35.0625 24.9043C34.1771 25.4577 33.2363 25.8783 32.2402 26.166C31.2441 26.4648 30.2314 26.6143 29.2021 26.6143ZM49.2568 14.7109L46.75 2.77441C45.1341 3.38314 43.8835 4.32943 42.998 5.61328C42.1237 6.88607 41.6865 8.45768 41.6865 10.3281C41.6865 11.0365 41.764 11.6009 41.9189 12.0215C41.9632 12.1654 42.0186 12.2926 42.085 12.4033C42.1292 12.4808 42.1514 12.5583 42.1514 12.6357C40.9229 12.6357 40.0264 12.3923 39.4619 11.9053C38.8311 11.374 38.5156 10.5163 38.5156 9.33203C38.5156 8.59049 38.6761 7.86003 38.9971 7.14062C39.318 6.41016 39.7718 5.70736 40.3584 5.03223C40.9118 4.3903 41.5703 3.79264 42.334 3.23926C43.1087 2.6748 43.9443 2.18783 44.8408 1.77832C46.7223 0.926107 48.5928 0.5 50.4521 0.5C50.9613 0.5 51.415 0.522135 51.8135 0.566406L53.2744 7.63867L57.2256 0.666016H59.5996L53.8887 10.5605L57.0762 26H51.6807L49.8711 17.5L44.9404 26H42.8652L49.2568 14.7109ZM69.5605 3.48828H69.1621C67.1478 3.48828 65.6315 3.94759 64.6133 4.86621C63.3848 5.97298 62.7705 7.80469 62.7705 10.3613C62.7705 11.0697 62.848 11.6341 63.0029 12.0547C63.0472 12.1986 63.1025 12.3258 63.1689 12.4365C63.2132 12.514 63.2354 12.5915 63.2354 12.6689C62.0068 12.6689 61.1104 12.4255 60.5459 11.9385C59.915 11.4072 59.5996 10.555 59.5996 9.38184C59.5996 8.20866 59.8154 7.09635 60.2471 6.04492C60.6898 4.98242 61.3594 4.05273 62.2559 3.25586C63.2188 2.39258 64.4417 1.72298 65.9248 1.24707C67.4189 0.771159 69.1787 0.533203 71.2041 0.533203C72.3662 0.533203 73.4785 0.599609 74.541 0.732422C74.873 0.765625 75.3047 0.826497 75.8359 0.915039C76.7214 1.08105 77.5736 1.19173 78.3926 1.24707C78.791 1.29134 79.2946 1.31348 79.9033 1.31348C80.6559 1.31348 81.3753 1.24707 82.0615 1.11426C82.7477 0.981445 83.3454 0.809896 83.8545 0.599609C83.7992 2.08268 83.4173 3.17285 82.709 3.87012C82.0117 4.56738 80.9769 4.91602 79.6045 4.91602C78.863 4.91602 78.1159 4.85514 77.3633 4.7334C76.6107 4.61165 75.598 4.4235 74.3252 4.16895L69.627 26H64.7461L69.5605 3.48828Z" fill="#11327D"/>
</svg>
