<svg width="364" height="41" viewBox="0 0 364 41" fill="none" xmlns="http://www.w3.org/2000/svg">
<path d="M8.78516 31.7227C7.50911 31.7227 6.35677 31.5534 5.32812 31.2148C4.29948 30.8893 3.41406 30.4141 2.67188 29.7891C1.91667 29.1641 1.33724 28.4219 0.933594 27.5625C0.542969 26.7031 0.347656 25.7526 0.347656 24.7109C0.347656 23.8385 0.484375 23.0182 0.757812 22.25C1.04427 21.4688 1.44141 20.7917 1.94922 20.2188C2.45703 19.6458 3.04948 19.2031 3.72656 18.8906C4.40365 18.5651 5.11979 18.4023 5.875 18.4023C6.8125 18.4023 7.60026 18.6367 8.23828 19.1055C8.8763 19.5742 9.27344 20.2188 9.42969 21.0391C8.03646 21.0391 6.92969 21.4102 6.10938 22.1523C5.71875 22.5039 5.41276 22.9336 5.19141 23.4414C4.98307 23.9492 4.87891 24.5091 4.87891 25.1211C4.87891 26.293 5.21745 27.224 5.89453 27.9141C6.58464 28.5911 7.50911 28.9297 8.66797 28.9297C9.35807 28.9297 10.0026 28.806 10.6016 28.5586C11.2005 28.2982 11.7214 27.9466 12.1641 27.5039C12.6068 27.0612 12.9453 26.5339 13.1797 25.9219C13.4271 25.2969 13.5508 24.6328 13.5508 23.9297C13.5508 22.6276 13.1081 21.2734 12.2227 19.8672C11.8711 19.3203 11.4805 18.7865 11.0508 18.2656C10.6341 17.7318 10.0482 17.0286 9.29297 16.1562C8.61589 15.375 8.04948 14.6979 7.59375 14.125C7.13802 13.5521 6.72786 12.9661 6.36328 12.3672C5.47786 10.9219 5.03516 9.5026 5.03516 8.10938C5.03516 7.06771 5.25651 6.10417 5.69922 5.21875C6.14193 4.32031 6.77344 3.53906 7.59375 2.875C8.41406 2.21094 9.37109 1.69661 10.4648 1.33203C11.5586 0.967448 12.737 0.785156 14 0.785156C16.1484 0.785156 17.8737 1.29297 19.1758 2.30859C19.8008 2.80339 20.276 3.39583 20.6016 4.08594C20.9401 4.77604 21.1094 5.54427 21.1094 6.39062C21.1094 7.4974 20.8294 8.40234 20.2695 9.10547C20.0091 9.44401 19.6836 9.70443 19.293 9.88672C18.9154 10.069 18.5117 10.1602 18.082 10.1602C17.0794 10.1602 16.2656 9.74349 15.6406 8.91016C16.1484 8.54557 16.5456 8.0638 16.832 7.46484C17.1315 6.85286 17.2812 6.20182 17.2812 5.51172C17.2812 4.65234 17.0273 3.97526 16.5195 3.48047C16.0117 2.97266 15.3151 2.71875 14.4297 2.71875C13.8958 2.71875 13.401 2.81641 12.9453 3.01172C12.5026 3.20703 12.125 3.48698 11.8125 3.85156C11.487 4.21615 11.2331 4.64583 11.0508 5.14062C10.8815 5.63542 10.7969 6.17578 10.7969 6.76172C10.7969 7.59505 10.9922 8.39583 11.3828 9.16406C11.7734 9.93229 12.3333 10.7331 13.0625 11.5664C13.7135 12.3346 14.4167 13.0964 15.1719 13.8516C16.9297 15.6745 18.1732 17.4518 18.9023 19.1836C19.332 20.2122 19.5469 21.3451 19.5469 22.582C19.5469 23.8841 19.2799 25.0951 18.7461 26.2148C18.2122 27.3216 17.4505 28.2852 16.4609 29.1055C15.4714 29.9388 14.319 30.5833 13.0039 31.0391C11.6888 31.4948 10.2826 31.7227 8.78516 31.7227ZM29.4492 31.7227C28.1992 31.7227 27.1055 31.5339 26.168 31.1562C25.2305 30.7917 24.4557 30.2708 23.8438 29.5938C23.2578 28.9557 22.8151 28.2135 22.5156 27.3672C22.2292 26.5208 22.0859 25.6224 22.0859 24.6719C22.0859 23.6172 22.2552 22.543 22.5938 21.4492C22.9323 20.3424 23.4206 19.3138 24.0586 18.3633C24.7096 17.3737 25.4909 16.5273 26.4023 15.8242C27.3268 15.1211 28.3555 14.6198 29.4883 14.3203C28.6549 13.7214 28.0365 13.0052 27.6328 12.1719C27.2422 11.3385 27.0469 10.4531 27.0469 9.51562C27.0469 8.48698 27.2617 7.46484 27.6914 6.44922C28.1341 5.42057 28.7461 4.49609 29.5273 3.67578C30.3346 2.81641 31.2721 2.14583 32.3398 1.66406C33.4206 1.16927 34.5794 0.921875 35.8164 0.921875C36.6107 0.921875 37.3594 1.03255 38.0625 1.25391C38.7656 1.46224 39.3711 1.77474 39.8789 2.19141C40.4128 2.62109 40.8229 3.14844 41.1094 3.77344C41.3958 4.39844 41.5391 5.11458 41.5391 5.92188C41.5391 6.50781 41.4609 7.05469 41.3047 7.5625C41.1484 8.07031 40.9336 8.51302 40.6602 8.89062C40.3867 9.26823 40.0677 9.5612 39.7031 9.76953C39.3385 9.97786 38.9609 10.082 38.5703 10.082C37.8411 10.082 37.2161 9.72396 36.6953 9.00781C36.9167 8.92969 37.138 8.77344 37.3594 8.53906C37.5807 8.29167 37.776 7.9987 37.9453 7.66016C38.1016 7.33464 38.2253 6.98307 38.3164 6.60547C38.4076 6.22786 38.4531 5.86328 38.4531 5.51172C38.4531 4.75651 38.2253 4.17708 37.7695 3.77344C37.3919 3.44792 36.8841 3.28516 36.2461 3.28516C35.6732 3.28516 35.1328 3.44141 34.625 3.75391C34.1172 4.06641 33.681 4.49609 33.3164 5.04297C32.9518 5.57682 32.6654 6.18229 32.457 6.85938C32.2617 7.53646 32.1641 8.22656 32.1641 8.92969C32.1641 10.1927 32.4766 11.2799 33.1016 12.1914C33.7786 13.207 34.8138 13.9036 36.207 14.2812C34.8529 14.5807 33.6029 15.2708 32.457 16.3516C31.4284 17.3411 30.6016 18.5326 29.9766 19.9258C29.3646 21.319 29.0586 22.6211 29.0586 23.832C29.0586 25.043 29.3516 26 29.9375 26.7031C30.5885 27.4844 31.5586 27.875 32.8477 27.875C33.4857 27.875 34.1562 27.7904 34.8594 27.6211C35.5755 27.4388 36.2591 27.1784 36.9102 26.8398C38.4206 26.0716 39.5339 25.056 40.25 23.793L41.168 24.2031C40.1133 26.5078 38.5052 28.3438 36.3438 29.7109C35.3021 30.362 34.1953 30.8568 33.0234 31.1953C31.8516 31.5469 30.6602 31.7227 29.4492 31.7227ZM62.5352 41C61.6497 41 60.7578 40.7917 59.8594 40.375C58.9609 39.9714 57.9909 39.3919 56.9492 38.6367C55.9987 37.9727 55.0547 37.2435 54.1172 36.4492C51.9167 34.6263 49.9049 33.3372 48.082 32.582C47.0273 32.1393 45.8945 31.918 44.6836 31.918H44.2344C44.1562 31.918 44 31.931 43.7656 31.957L49.7227 4.24219C47.9258 4.98438 46.5456 6.09115 45.582 7.5625C44.6185 9.02083 44.1367 10.8177 44.1367 12.9531C44.1367 13.7734 44.2279 14.444 44.4102 14.9648C44.4622 15.1341 44.5273 15.2839 44.6055 15.4141C44.6576 15.5052 44.6836 15.5964 44.6836 15.6875C43.2383 15.6875 42.1836 15.3945 41.5195 14.8086C40.7773 14.1836 40.4062 13.181 40.4062 11.8008C40.4062 10.9284 40.5951 10.069 40.9727 9.22266C41.3503 8.36328 41.8841 7.53646 42.5742 6.74219C43.2383 5.97396 44.0195 5.26432 44.918 4.61328C45.8294 3.94922 46.806 3.3763 47.8477 2.89453C50.0612 1.89193 52.2617 1.39062 54.4492 1.39062C54.931 1.39062 55.4648 1.42318 56.0508 1.48828L49.8984 30.1992C50.5365 30.3424 51.181 30.5573 51.832 30.8438C52.4961 31.1302 53.2513 31.5013 54.0977 31.957L56.2852 33.1289C57.9779 34.0534 59.5078 34.6914 60.875 35.043C61.6562 35.2513 62.4766 35.3555 63.3359 35.3555C64.5469 35.3555 65.6667 35.1406 66.6953 34.7109C66.4609 36.6641 65.9857 38.194 65.2695 39.3008C64.918 39.8477 64.5078 40.2643 64.0391 40.5508C63.5833 40.8503 63.082 41 62.5352 41ZM62.9648 31.7227C61.7148 31.7227 60.6211 31.5339 59.6836 31.1562C58.7461 30.7917 57.9714 30.2708 57.3594 29.5938C56.7734 28.9557 56.3307 28.2135 56.0312 27.3672C55.7448 26.5208 55.6016 25.6224 55.6016 24.6719C55.6016 23.6172 55.7708 22.543 56.1094 21.4492C56.4479 20.3424 56.9362 19.3138 57.5742 18.3633C58.2253 17.3737 59.0065 16.5273 59.918 15.8242C60.8424 15.1211 61.8711 14.6198 63.0039 14.3203C62.1706 13.7214 61.5521 13.0052 61.1484 12.1719C60.7578 11.3385 60.5625 10.4531 60.5625 9.51562C60.5625 8.48698 60.7773 7.46484 61.207 6.44922C61.6497 5.42057 62.2617 4.49609 63.043 3.67578C63.8503 2.81641 64.7878 2.14583 65.8555 1.66406C66.9362 1.16927 68.0951 0.921875 69.332 0.921875C70.1263 0.921875 70.875 1.03255 71.5781 1.25391C72.2812 1.46224 72.8867 1.77474 73.3945 2.19141C73.9284 2.62109 74.3385 3.14844 74.625 3.77344C74.9115 4.39844 75.0547 5.11458 75.0547 5.92188C75.0547 6.50781 74.9766 7.05469 74.8203 7.5625C74.6641 8.07031 74.4492 8.51302 74.1758 8.89062C73.9023 9.26823 73.5833 9.5612 73.2188 9.76953C72.8542 9.97786 72.4766 10.082 72.0859 10.082C71.3568 10.082 70.7318 9.72396 70.2109 9.00781C70.4323 8.92969 70.6536 8.77344 70.875 8.53906C71.0964 8.29167 71.2917 7.9987 71.4609 7.66016C71.6172 7.33464 71.7409 6.98307 71.832 6.60547C71.9232 6.22786 71.9688 5.86328 71.9688 5.51172C71.9688 4.75651 71.7409 4.17708 71.2852 3.77344C70.9076 3.44792 70.3997 3.28516 69.7617 3.28516C69.1888 3.28516 68.6484 3.44141 68.1406 3.75391C67.6328 4.06641 67.1966 4.49609 66.832 5.04297C66.4674 5.57682 66.181 6.18229 65.9727 6.85938C65.7773 7.53646 65.6797 8.22656 65.6797 8.92969C65.6797 10.1927 65.9922 11.2799 66.6172 12.1914C67.2943 13.207 68.3294 13.9036 69.7227 14.2812C68.3685 14.5807 67.1185 15.2708 65.9727 16.3516C64.944 17.3411 64.1172 18.5326 63.4922 19.9258C62.8802 21.319 62.5742 22.6211 62.5742 23.832C62.5742 25.043 62.8672 26 63.4531 26.7031C64.1042 27.4844 65.0742 27.875 66.3633 27.875C67.0013 27.875 67.6719 27.7904 68.375 27.6211C69.0911 27.4388 69.7747 27.1784 70.4258 26.8398C71.9362 26.0716 73.0495 25.056 73.7656 23.793L74.6836 24.2031C73.6289 26.5078 72.0208 28.3438 69.8594 29.7109C68.8177 30.362 67.7109 30.8568 66.5391 31.1953C65.3672 31.5469 64.1758 31.7227 62.9648 31.7227ZM83.1992 31.6445C81.6888 31.6445 80.3932 31.4622 79.3125 31.0977C78.2318 30.7461 77.3333 30.1862 76.6172 29.418C75.888 28.6367 75.3411 27.6211 74.9766 26.3711C74.625 25.1081 74.4492 23.5846 74.4492 21.8008C74.4492 19.7826 74.6836 17.6797 75.1523 15.4922C75.6992 12.9531 76.4805 10.681 77.4961 8.67578C78.681 6.34505 80.1198 4.52865 81.8125 3.22656C83.7396 1.74219 85.9401 1 88.4141 1C90.4062 1 91.9883 1.41667 93.1602 2.25C94.4492 3.16146 95.0938 4.52865 95.0938 6.35156C95.0938 7.4974 94.8854 8.3763 94.4688 8.98828C93.974 9.69141 93.2448 10.043 92.2812 10.043C91.8776 10.043 91.4805 9.97135 91.0898 9.82812C90.7122 9.6849 90.3542 9.41146 90.0156 9.00781C90.25 8.89062 90.4779 8.70833 90.6992 8.46094C90.9206 8.20052 91.1159 7.90104 91.2852 7.5625C91.6628 6.80729 91.8516 6.05859 91.8516 5.31641C91.8516 4.60026 91.6693 4.03385 91.3047 3.61719C90.875 3.1224 90.2435 2.875 89.4102 2.875C88.694 2.875 87.9844 3.14193 87.2812 3.67578C86.5911 4.19661 85.9271 4.9388 85.2891 5.90234C84.6771 6.82682 84.1107 7.90755 83.5898 9.14453C83.069 10.3815 82.6263 11.6966 82.2617 13.0898C81.8971 14.4961 81.6107 15.9284 81.4023 17.3867C81.194 18.8451 81.0898 20.2383 81.0898 21.5664C81.0898 22.556 81.1615 23.4219 81.3047 24.1641C81.4609 24.9062 81.7083 25.5378 82.0469 26.0586C82.7891 27.2174 84.0716 27.7969 85.8945 27.7969C87.457 27.7969 88.9089 27.4518 90.25 26.7617C91.5911 26.0586 92.737 25.069 93.6875 23.793L94.6055 24.2031C94.0977 25.4792 93.3945 26.599 92.4961 27.5625C91.6107 28.513 90.6081 29.3008 89.4883 29.9258C88.4596 30.4987 87.3984 30.9284 86.3047 31.2148C85.2109 31.5013 84.1758 31.6445 83.1992 31.6445ZM105.523 4.51562H105.055C102.685 4.51562 100.901 5.05599 99.7031 6.13672C98.2578 7.4388 97.5352 9.59375 97.5352 12.6016C97.5352 13.4349 97.6263 14.099 97.8086 14.5938C97.8607 14.763 97.9258 14.9128 98.0039 15.043C98.056 15.1341 98.082 15.2253 98.082 15.3164C96.6367 15.3164 95.582 15.0299 94.918 14.457C94.1758 13.832 93.8047 12.8294 93.8047 11.4492C93.8047 10.069 94.0586 8.76042 94.5664 7.52344C95.0872 6.27344 95.875 5.17969 96.9297 4.24219C98.0625 3.22656 99.5013 2.4388 101.246 1.87891C103.004 1.31901 105.074 1.03906 107.457 1.03906C108.824 1.03906 110.133 1.11719 111.383 1.27344C111.773 1.3125 112.281 1.38411 112.906 1.48828C113.948 1.68359 114.951 1.8138 115.914 1.87891C116.383 1.93099 116.975 1.95703 117.691 1.95703C118.577 1.95703 119.423 1.87891 120.23 1.72266C121.038 1.56641 121.741 1.36458 122.34 1.11719C122.275 2.86198 121.826 4.14453 120.992 4.96484C120.172 5.78516 118.954 6.19531 117.34 6.19531C116.467 6.19531 115.589 6.1237 114.703 5.98047C113.818 5.83724 112.626 5.61589 111.129 5.31641L105.602 31H99.8594L105.523 4.51562ZM143.941 18.6758L140.094 3.67578C138.193 4.39193 136.721 5.50521 135.68 7.01562C134.651 8.51302 134.137 10.362 134.137 12.5625C134.137 13.3958 134.228 14.0599 134.41 14.5547C134.462 14.724 134.527 14.8737 134.605 15.0039C134.658 15.0951 134.684 15.1862 134.684 15.2773C133.238 15.2773 132.184 14.9909 131.52 14.418C130.777 13.793 130.406 12.7839 130.406 11.3906C130.406 10.5182 130.595 9.65885 130.973 8.8125C131.35 7.95312 131.884 7.1263 132.574 6.33203C133.225 5.57682 134 4.8737 134.898 4.22266C135.81 3.55859 136.793 2.98568 137.848 2.50391C140.061 1.5013 142.262 1 144.449 1C145.048 1 145.582 1.02604 146.051 1.07812L149.527 15.3945L155.445 1.19531H158.102L150.328 18.6758L147.691 31H141.285L143.941 18.6758ZM166.461 31.2344C164.234 31.2344 162.516 30.6289 161.305 29.418C159.964 28.0768 159.293 26.0065 159.293 23.207C159.293 22.1003 159.397 20.8698 159.605 19.5156C159.814 18.1615 160.113 16.8073 160.504 15.4531C160.921 14.0078 161.435 12.6276 162.047 11.3125C162.672 9.9974 163.368 8.84505 164.137 7.85547C165.921 5.57682 167.919 4.4375 170.133 4.4375C170.536 4.4375 170.895 4.46354 171.207 4.51562C171.533 4.55469 171.871 4.63932 172.223 4.76953C171.064 5.44661 169.918 6.91797 168.785 9.18359C167.743 11.2799 166.891 13.6432 166.227 16.2734C165.549 18.9167 165.211 21.2799 165.211 23.3633C165.211 24.7695 165.393 25.8763 165.758 26.6836C166.148 27.556 166.741 27.9922 167.535 27.9922C168.186 27.9922 168.844 27.7383 169.508 27.2305C170.185 26.7227 170.849 26.0065 171.5 25.082C172.125 24.1836 172.704 23.1419 173.238 21.957C173.772 20.7591 174.234 19.4831 174.625 18.1289C175.471 15.2122 175.895 12.4518 175.895 9.84766C175.895 8.59766 175.823 7.54948 175.68 6.70312C175.536 5.85677 175.283 5.15365 174.918 4.59375C174.527 3.99479 174 3.55208 173.336 3.26562C172.672 2.97917 171.819 2.83594 170.777 2.83594C169.254 2.83594 167.796 3.07682 166.402 3.55859C165.009 4.02734 163.785 4.70443 162.73 5.58984C161.637 6.51432 160.784 7.61458 160.172 8.89062C159.56 10.1667 159.254 11.5794 159.254 13.1289C159.254 13.7148 159.326 14.2227 159.469 14.6523C159.508 14.8216 159.553 14.9453 159.605 15.0234C159.645 15.1146 159.664 15.1992 159.664 15.2773C158.336 15.2773 157.327 15.0169 156.637 14.4961C155.96 13.9622 155.621 13.1029 155.621 11.918C155.621 10.082 156.389 8.30469 157.926 6.58594C159.436 4.91927 161.396 3.58464 163.805 2.58203C166.344 1.52734 168.987 1 171.734 1C175.068 1 177.522 1.95703 179.098 3.87109C180.504 5.58984 181.207 8.04427 181.207 11.2344C181.207 12.5755 181.083 13.9883 180.836 15.4727C180.589 16.957 180.217 18.4154 179.723 19.8477C179.176 21.4102 178.499 22.8685 177.691 24.2227C176.897 25.5768 175.979 26.7552 174.938 27.7578C172.529 30.0755 169.703 31.2344 166.461 31.2344ZM195.797 31.2734C193.141 31.2734 191.142 30.6289 189.801 29.3398C188.46 28.0508 187.789 26.1367 187.789 23.5977C187.789 22.3346 187.978 20.9349 188.355 19.3984L192.438 3.16797C191.292 3.46745 190.263 3.90365 189.352 4.47656C188.44 5.04948 187.665 5.72005 187.027 6.48828C186.415 7.21745 185.947 8.01823 185.621 8.89062C185.309 9.75 185.152 10.6354 185.152 11.5469C185.152 12.888 185.497 14.1641 186.188 15.375C184.664 15.375 183.479 15.0039 182.633 14.2617C181.799 13.5195 181.383 12.4648 181.383 11.0977C181.383 10.2253 181.565 9.36589 181.93 8.51953C182.307 7.66016 182.841 6.83984 183.531 6.05859C184.182 5.30339 184.977 4.60677 185.914 3.96875C186.852 3.33073 187.887 2.77734 189.02 2.30859C191.389 1.33203 193.857 0.84375 196.422 0.84375C197.32 0.84375 198.069 0.908854 198.668 1.03906L193.785 19.5156C193.329 21.1823 193.102 22.6211 193.102 23.832C193.102 26.3711 194.143 27.6406 196.227 27.6406C199.169 27.6406 201.24 24.8932 202.438 19.3984L206.422 0.921875H212.066L208.16 19.3984C207.327 23.3047 205.868 26.2604 203.785 28.2656C201.702 30.2708 199.039 31.2734 195.797 31.2734ZM227.652 31.6836C226.493 31.6836 225.654 31.3906 225.133 30.8047C224.729 30.362 224.527 29.763 224.527 29.0078C224.527 28.4089 224.618 27.7188 224.801 26.9375C224.983 26.1432 225.25 25.1211 225.602 23.8711C225.953 22.6081 226.214 21.5664 226.383 20.7461C226.565 19.9258 226.656 19.1706 226.656 18.4805C226.656 17.6341 226.48 16.9766 226.129 16.5078C225.738 16.013 225.113 15.7656 224.254 15.7656C223.772 15.7656 223.329 15.8177 222.926 15.9219L219.723 31H213.98L219.41 5.55078L225.328 4.76953L223.375 14.0078H223.688C224.482 14.0078 225.23 13.7995 225.934 13.3828C226.637 12.9531 227.255 12.3802 227.789 11.6641C228.284 10.987 228.668 10.2383 228.941 9.41797C229.228 8.59766 229.371 7.80339 229.371 7.03516C229.371 6.46224 229.28 5.92188 229.098 5.41406C228.928 4.90625 228.674 4.46354 228.336 4.08594C227.568 3.2526 226.448 2.83594 224.977 2.83594C223.349 2.83594 221.871 3.05729 220.543 3.5C219.228 3.92969 218.095 4.56771 217.145 5.41406C216.181 6.26042 215.445 7.28906 214.938 8.5C214.43 9.71094 214.176 11.0651 214.176 12.5625C214.176 13.3958 214.267 14.0599 214.449 14.5547C214.501 14.724 214.566 14.8737 214.645 15.0039C214.697 15.0951 214.723 15.1862 214.723 15.2773C213.277 15.2773 212.223 14.9909 211.559 14.418C210.816 13.793 210.445 12.7839 210.445 11.3906C210.445 10.5182 210.634 9.65885 211.012 8.8125C211.389 7.95312 211.923 7.1263 212.613 6.33203C213.264 5.57682 214.039 4.8737 214.938 4.22266C215.849 3.55859 216.832 2.98568 217.887 2.50391C220.1 1.5013 222.301 1 224.488 1C225.999 1 227.327 1.17578 228.473 1.52734C229.632 1.86589 230.602 2.34766 231.383 2.97266C232.112 3.55859 232.659 4.23568 233.023 5.00391C233.388 5.75911 233.57 6.5599 233.57 7.40625C233.57 8.68229 233.199 9.91927 232.457 11.1172C231.624 12.4453 230.556 13.487 229.254 14.2422C230.283 14.5547 231.005 15.056 231.422 15.7461C231.812 16.4102 232.008 17.2435 232.008 18.2461C232.008 18.9883 231.923 19.7826 231.754 20.6289C231.585 21.4622 231.344 22.4518 231.031 23.5977C230.68 24.8737 230.426 25.8503 230.27 26.5273C230.126 27.1914 230.055 27.8034 230.055 28.3633C230.055 28.9883 230.191 29.5417 230.465 30.0234C230.751 30.4922 231.135 30.8177 231.617 31C230.016 31.4557 228.694 31.6836 227.652 31.6836ZM261.129 31.6445C259.618 31.6445 258.323 31.4622 257.242 31.0977C256.161 30.7461 255.263 30.1862 254.547 29.418C253.818 28.6367 253.271 27.6211 252.906 26.3711C252.555 25.1081 252.379 23.5846 252.379 21.8008C252.379 19.7826 252.613 17.6797 253.082 15.4922C253.629 12.9531 254.41 10.681 255.426 8.67578C256.611 6.34505 258.049 4.52865 259.742 3.22656C261.669 1.74219 263.87 1 266.344 1C268.336 1 269.918 1.41667 271.09 2.25C272.379 3.16146 273.023 4.52865 273.023 6.35156C273.023 7.4974 272.815 8.3763 272.398 8.98828C271.904 9.69141 271.174 10.043 270.211 10.043C269.807 10.043 269.41 9.97135 269.02 9.82812C268.642 9.6849 268.284 9.41146 267.945 9.00781C268.18 8.89062 268.408 8.70833 268.629 8.46094C268.85 8.20052 269.046 7.90104 269.215 7.5625C269.592 6.80729 269.781 6.05859 269.781 5.31641C269.781 4.60026 269.599 4.03385 269.234 3.61719C268.805 3.1224 268.173 2.875 267.34 2.875C266.624 2.875 265.914 3.14193 265.211 3.67578C264.521 4.19661 263.857 4.9388 263.219 5.90234C262.607 6.82682 262.04 7.90755 261.52 9.14453C260.999 10.3815 260.556 11.6966 260.191 13.0898C259.827 14.4961 259.54 15.9284 259.332 17.3867C259.124 18.8451 259.02 20.2383 259.02 21.5664C259.02 22.556 259.091 23.4219 259.234 24.1641C259.391 24.9062 259.638 25.5378 259.977 26.0586C260.719 27.2174 262.001 27.7969 263.824 27.7969C265.387 27.7969 266.839 27.4518 268.18 26.7617C269.521 26.0586 270.667 25.069 271.617 23.793L272.535 24.2031C272.027 25.4792 271.324 26.599 270.426 27.5625C269.54 28.513 268.538 29.3008 267.418 29.9258C266.389 30.4987 265.328 30.9284 264.234 31.2148C263.141 31.5013 262.105 31.6445 261.129 31.6445ZM282.984 31.2344C280.758 31.2344 279.039 30.6289 277.828 29.418C276.487 28.0768 275.816 26.0065 275.816 23.207C275.816 22.1003 275.921 20.8698 276.129 19.5156C276.337 18.1615 276.637 16.8073 277.027 15.4531C277.444 14.0078 277.958 12.6276 278.57 11.3125C279.195 9.9974 279.892 8.84505 280.66 7.85547C282.444 5.57682 284.443 4.4375 286.656 4.4375C287.06 4.4375 287.418 4.46354 287.73 4.51562C288.056 4.55469 288.395 4.63932 288.746 4.76953C287.587 5.44661 286.441 6.91797 285.309 9.18359C284.267 11.2799 283.414 13.6432 282.75 16.2734C282.073 18.9167 281.734 21.2799 281.734 23.3633C281.734 24.7695 281.917 25.8763 282.281 26.6836C282.672 27.556 283.264 27.9922 284.059 27.9922C284.71 27.9922 285.367 27.7383 286.031 27.2305C286.708 26.7227 287.372 26.0065 288.023 25.082C288.648 24.1836 289.228 23.1419 289.762 21.957C290.296 20.7591 290.758 19.4831 291.148 18.1289C291.995 15.2122 292.418 12.4518 292.418 9.84766C292.418 8.59766 292.346 7.54948 292.203 6.70312C292.06 5.85677 291.806 5.15365 291.441 4.59375C291.051 3.99479 290.523 3.55208 289.859 3.26562C289.195 2.97917 288.342 2.83594 287.301 2.83594C285.777 2.83594 284.319 3.07682 282.926 3.55859C281.533 4.02734 280.309 4.70443 279.254 5.58984C278.16 6.51432 277.307 7.61458 276.695 8.89062C276.083 10.1667 275.777 11.5794 275.777 13.1289C275.777 13.7148 275.849 14.2227 275.992 14.6523C276.031 14.8216 276.077 14.9453 276.129 15.0234C276.168 15.1146 276.188 15.1992 276.188 15.2773C274.859 15.2773 273.85 15.0169 273.16 14.4961C272.483 13.9622 272.145 13.1029 272.145 11.918C272.145 10.082 272.913 8.30469 274.449 6.58594C275.96 4.91927 277.919 3.58464 280.328 2.58203C282.867 1.52734 285.51 1 288.258 1C291.591 1 294.046 1.95703 295.621 3.87109C297.027 5.58984 297.73 8.04427 297.73 11.2344C297.73 12.5755 297.607 13.9883 297.359 15.4727C297.112 16.957 296.741 18.4154 296.246 19.8477C295.699 21.4102 295.022 22.8685 294.215 24.2227C293.421 25.5768 292.503 26.7552 291.461 27.7578C289.052 30.0755 286.227 31.2344 282.984 31.2344ZM320.465 41C319.579 41 318.688 40.7917 317.789 40.375C316.891 39.9714 315.921 39.3919 314.879 38.6367C313.928 37.9727 312.984 37.2435 312.047 36.4492C309.846 34.6263 307.835 33.3372 306.012 32.582C304.957 32.1393 303.824 31.918 302.613 31.918H302.164C302.086 31.918 301.93 31.931 301.695 31.957L307.652 4.24219C305.855 4.98438 304.475 6.09115 303.512 7.5625C302.548 9.02083 302.066 10.8177 302.066 12.9531C302.066 13.7734 302.158 14.444 302.34 14.9648C302.392 15.1341 302.457 15.2839 302.535 15.4141C302.587 15.5052 302.613 15.5964 302.613 15.6875C301.168 15.6875 300.113 15.3945 299.449 14.8086C298.707 14.1836 298.336 13.181 298.336 11.8008C298.336 10.9284 298.525 10.069 298.902 9.22266C299.28 8.36328 299.814 7.53646 300.504 6.74219C301.168 5.97396 301.949 5.26432 302.848 4.61328C303.759 3.94922 304.736 3.3763 305.777 2.89453C307.991 1.89193 310.191 1.39062 312.379 1.39062C312.861 1.39062 313.395 1.42318 313.98 1.48828L307.828 30.1992C308.466 30.3424 309.111 30.5573 309.762 30.8438C310.426 31.1302 311.181 31.5013 312.027 31.957L314.215 33.1289C315.908 34.0534 317.438 34.6914 318.805 35.043C319.586 35.2513 320.406 35.3555 321.266 35.3555C322.477 35.3555 323.596 35.1406 324.625 34.7109C324.391 36.6641 323.915 38.194 323.199 39.3008C322.848 39.8477 322.438 40.2643 321.969 40.5508C321.513 40.8503 321.012 41 320.465 41ZM324.742 31.2344C322.516 31.2344 320.797 30.6289 319.586 29.418C318.245 28.0768 317.574 26.0065 317.574 23.207C317.574 22.1003 317.678 20.8698 317.887 19.5156C318.095 18.1615 318.395 16.8073 318.785 15.4531C319.202 14.0078 319.716 12.6276 320.328 11.3125C320.953 9.9974 321.65 8.84505 322.418 7.85547C324.202 5.57682 326.201 4.4375 328.414 4.4375C328.818 4.4375 329.176 4.46354 329.488 4.51562C329.814 4.55469 330.152 4.63932 330.504 4.76953C329.345 5.44661 328.199 6.91797 327.066 9.18359C326.025 11.2799 325.172 13.6432 324.508 16.2734C323.831 18.9167 323.492 21.2799 323.492 23.3633C323.492 24.7695 323.674 25.8763 324.039 26.6836C324.43 27.556 325.022 27.9922 325.816 27.9922C326.467 27.9922 327.125 27.7383 327.789 27.2305C328.466 26.7227 329.13 26.0065 329.781 25.082C330.406 24.1836 330.986 23.1419 331.52 21.957C332.053 20.7591 332.516 19.4831 332.906 18.1289C333.753 15.2122 334.176 12.4518 334.176 9.84766C334.176 8.59766 334.104 7.54948 333.961 6.70312C333.818 5.85677 333.564 5.15365 333.199 4.59375C332.809 3.99479 332.281 3.55208 331.617 3.26562C330.953 2.97917 330.1 2.83594 329.059 2.83594C327.535 2.83594 326.077 3.07682 324.684 3.55859C323.29 4.02734 322.066 4.70443 321.012 5.58984C319.918 6.51432 319.065 7.61458 318.453 8.89062C317.841 10.1667 317.535 11.5794 317.535 13.1289C317.535 13.7148 317.607 14.2227 317.75 14.6523C317.789 14.8216 317.835 14.9453 317.887 15.0234C317.926 15.1146 317.945 15.1992 317.945 15.2773C316.617 15.2773 315.608 15.0169 314.918 14.4961C314.241 13.9622 313.902 13.1029 313.902 11.918C313.902 10.082 314.671 8.30469 316.207 6.58594C317.717 4.91927 319.677 3.58464 322.086 2.58203C324.625 1.52734 327.268 1 330.016 1C333.349 1 335.803 1.95703 337.379 3.87109C338.785 5.58984 339.488 8.04427 339.488 11.2344C339.488 12.5755 339.365 13.9883 339.117 15.4727C338.87 16.957 338.499 18.4154 338.004 19.8477C337.457 21.4102 336.78 22.8685 335.973 24.2227C335.178 25.5768 334.26 26.7552 333.219 27.7578C330.81 30.0755 327.984 31.2344 324.742 31.2344ZM357.301 31.6836C356.142 31.6836 355.302 31.3906 354.781 30.8047C354.378 30.362 354.176 29.763 354.176 29.0078C354.176 28.4089 354.267 27.7188 354.449 26.9375C354.632 26.1432 354.898 25.1211 355.25 23.8711C355.602 22.6081 355.862 21.5664 356.031 20.7461C356.214 19.9258 356.305 19.1706 356.305 18.4805C356.305 17.6341 356.129 16.9766 355.777 16.5078C355.387 16.013 354.762 15.7656 353.902 15.7656C353.421 15.7656 352.978 15.8177 352.574 15.9219L349.371 31H343.629L349.059 5.55078L354.977 4.76953L353.023 14.0078H353.336C354.13 14.0078 354.879 13.7995 355.582 13.3828C356.285 12.9531 356.904 12.3802 357.438 11.6641C357.932 10.987 358.316 10.2383 358.59 9.41797C358.876 8.59766 359.02 7.80339 359.02 7.03516C359.02 6.46224 358.928 5.92188 358.746 5.41406C358.577 4.90625 358.323 4.46354 357.984 4.08594C357.216 3.2526 356.096 2.83594 354.625 2.83594C352.997 2.83594 351.52 3.05729 350.191 3.5C348.876 3.92969 347.743 4.56771 346.793 5.41406C345.829 6.26042 345.094 7.28906 344.586 8.5C344.078 9.71094 343.824 11.0651 343.824 12.5625C343.824 13.3958 343.915 14.0599 344.098 14.5547C344.15 14.724 344.215 14.8737 344.293 15.0039C344.345 15.0951 344.371 15.1862 344.371 15.2773C342.926 15.2773 341.871 14.9909 341.207 14.418C340.465 13.793 340.094 12.7839 340.094 11.3906C340.094 10.5182 340.283 9.65885 340.66 8.8125C341.038 7.95312 341.572 7.1263 342.262 6.33203C342.913 5.57682 343.688 4.8737 344.586 4.22266C345.497 3.55859 346.48 2.98568 347.535 2.50391C349.749 1.5013 351.949 1 354.137 1C355.647 1 356.975 1.17578 358.121 1.52734C359.28 1.86589 360.25 2.34766 361.031 2.97266C361.76 3.55859 362.307 4.23568 362.672 5.00391C363.036 5.75911 363.219 6.5599 363.219 7.40625C363.219 8.68229 362.848 9.91927 362.105 11.1172C361.272 12.4453 360.204 13.487 358.902 14.2422C359.931 14.5547 360.654 15.056 361.07 15.7461C361.461 16.4102 361.656 17.2435 361.656 18.2461C361.656 18.9883 361.572 19.7826 361.402 20.6289C361.233 21.4622 360.992 22.4518 360.68 23.5977C360.328 24.8737 360.074 25.8503 359.918 26.5273C359.775 27.1914 359.703 27.8034 359.703 28.3633C359.703 28.9883 359.84 29.5417 360.113 30.0234C360.4 30.4922 360.784 30.8177 361.266 31C359.664 31.4557 358.342 31.6836 357.301 31.6836Z" fill="#11327D"/>
</svg>
