<svg width="285" height="41" viewBox="0 0 285 41" fill="none" xmlns="http://www.w3.org/2000/svg">
<path d="M8.78516 31.7227C7.50911 31.7227 6.35677 31.5534 5.32812 31.2148C4.29948 30.8893 3.41406 30.4141 2.67188 29.7891C1.91667 29.1641 1.33724 28.4219 0.933594 27.5625C0.542969 26.7031 0.347656 25.7526 0.347656 24.7109C0.347656 23.8385 0.484375 23.0182 0.757812 22.25C1.04427 21.4688 1.44141 20.7917 1.94922 20.2188C2.45703 19.6458 3.04948 19.2031 3.72656 18.8906C4.40365 18.5651 5.11979 18.4023 5.875 18.4023C6.8125 18.4023 7.60026 18.6367 8.23828 19.1055C8.8763 19.5742 9.27344 20.2188 9.42969 21.0391C8.03646 21.0391 6.92969 21.4102 6.10938 22.1523C5.71875 22.5039 5.41276 22.9336 5.19141 23.4414C4.98307 23.9492 4.87891 24.5091 4.87891 25.1211C4.87891 26.293 5.21745 27.224 5.89453 27.9141C6.58464 28.5911 7.50911 28.9297 8.66797 28.9297C9.35807 28.9297 10.0026 28.806 10.6016 28.5586C11.2005 28.2982 11.7214 27.9466 12.1641 27.5039C12.6068 27.0612 12.9453 26.5339 13.1797 25.9219C13.4271 25.2969 13.5508 24.6328 13.5508 23.9297C13.5508 22.6276 13.1081 21.2734 12.2227 19.8672C11.8711 19.3203 11.4805 18.7865 11.0508 18.2656C10.6341 17.7318 10.0482 17.0286 9.29297 16.1562C8.61589 15.375 8.04948 14.6979 7.59375 14.125C7.13802 13.5521 6.72786 12.9661 6.36328 12.3672C5.47786 10.9219 5.03516 9.5026 5.03516 8.10938C5.03516 7.06771 5.25651 6.10417 5.69922 5.21875C6.14193 4.32031 6.77344 3.53906 7.59375 2.875C8.41406 2.21094 9.37109 1.69661 10.4648 1.33203C11.5586 0.967448 12.737 0.785156 14 0.785156C16.1484 0.785156 17.8737 1.29297 19.1758 2.30859C19.8008 2.80339 20.276 3.39583 20.6016 4.08594C20.9401 4.77604 21.1094 5.54427 21.1094 6.39062C21.1094 7.4974 20.8294 8.40234 20.2695 9.10547C20.0091 9.44401 19.6836 9.70443 19.293 9.88672C18.9154 10.069 18.5117 10.1602 18.082 10.1602C17.0794 10.1602 16.2656 9.74349 15.6406 8.91016C16.1484 8.54557 16.5456 8.0638 16.832 7.46484C17.1315 6.85286 17.2812 6.20182 17.2812 5.51172C17.2812 4.65234 17.0273 3.97526 16.5195 3.48047C16.0117 2.97266 15.3151 2.71875 14.4297 2.71875C13.8958 2.71875 13.401 2.81641 12.9453 3.01172C12.5026 3.20703 12.125 3.48698 11.8125 3.85156C11.487 4.21615 11.2331 4.64583 11.0508 5.14062C10.8815 5.63542 10.7969 6.17578 10.7969 6.76172C10.7969 7.59505 10.9922 8.39583 11.3828 9.16406C11.7734 9.93229 12.3333 10.7331 13.0625 11.5664C13.7135 12.3346 14.4167 13.0964 15.1719 13.8516C16.9297 15.6745 18.1732 17.4518 18.9023 19.1836C19.332 20.2122 19.5469 21.3451 19.5469 22.582C19.5469 23.8841 19.2799 25.0951 18.7461 26.2148C18.2122 27.3216 17.4505 28.2852 16.4609 29.1055C15.4714 29.9388 14.319 30.5833 13.0039 31.0391C11.6888 31.4948 10.2826 31.7227 8.78516 31.7227ZM29.4492 31.7227C28.1992 31.7227 27.1055 31.5339 26.168 31.1562C25.2305 30.7917 24.4557 30.2708 23.8438 29.5938C23.2578 28.9557 22.8151 28.2135 22.5156 27.3672C22.2292 26.5208 22.0859 25.6224 22.0859 24.6719C22.0859 23.6172 22.2552 22.543 22.5938 21.4492C22.9323 20.3424 23.4206 19.3138 24.0586 18.3633C24.7096 17.3737 25.4909 16.5273 26.4023 15.8242C27.3268 15.1211 28.3555 14.6198 29.4883 14.3203C28.6549 13.7214 28.0365 13.0052 27.6328 12.1719C27.2422 11.3385 27.0469 10.4531 27.0469 9.51562C27.0469 8.48698 27.2617 7.46484 27.6914 6.44922C28.1341 5.42057 28.7461 4.49609 29.5273 3.67578C30.3346 2.81641 31.2721 2.14583 32.3398 1.66406C33.4206 1.16927 34.5794 0.921875 35.8164 0.921875C36.6107 0.921875 37.3594 1.03255 38.0625 1.25391C38.7656 1.46224 39.3711 1.77474 39.8789 2.19141C40.4128 2.62109 40.8229 3.14844 41.1094 3.77344C41.3958 4.39844 41.5391 5.11458 41.5391 5.92188C41.5391 6.50781 41.4609 7.05469 41.3047 7.5625C41.1484 8.07031 40.9336 8.51302 40.6602 8.89062C40.3867 9.26823 40.0677 9.5612 39.7031 9.76953C39.3385 9.97786 38.9609 10.082 38.5703 10.082C37.8411 10.082 37.2161 9.72396 36.6953 9.00781C36.9167 8.92969 37.138 8.77344 37.3594 8.53906C37.5807 8.29167 37.776 7.9987 37.9453 7.66016C38.1016 7.33464 38.2253 6.98307 38.3164 6.60547C38.4076 6.22786 38.4531 5.86328 38.4531 5.51172C38.4531 4.75651 38.2253 4.17708 37.7695 3.77344C37.3919 3.44792 36.8841 3.28516 36.2461 3.28516C35.6732 3.28516 35.1328 3.44141 34.625 3.75391C34.1172 4.06641 33.681 4.49609 33.3164 5.04297C32.9518 5.57682 32.6654 6.18229 32.457 6.85938C32.2617 7.53646 32.1641 8.22656 32.1641 8.92969C32.1641 10.1927 32.4766 11.2799 33.1016 12.1914C33.7786 13.207 34.8138 13.9036 36.207 14.2812C34.8529 14.5807 33.6029 15.2708 32.457 16.3516C31.4284 17.3411 30.6016 18.5326 29.9766 19.9258C29.3646 21.319 29.0586 22.6211 29.0586 23.832C29.0586 25.043 29.3516 26 29.9375 26.7031C30.5885 27.4844 31.5586 27.875 32.8477 27.875C33.4857 27.875 34.1562 27.7904 34.8594 27.6211C35.5755 27.4388 36.2591 27.1784 36.9102 26.8398C38.4206 26.0716 39.5339 25.056 40.25 23.793L41.168 24.2031C40.1133 26.5078 38.5052 28.3438 36.3438 29.7109C35.3021 30.362 34.1953 30.8568 33.0234 31.1953C31.8516 31.5469 30.6602 31.7227 29.4492 31.7227ZM62.5352 41C61.6497 41 60.7578 40.7917 59.8594 40.375C58.9609 39.9714 57.9909 39.3919 56.9492 38.6367C55.9987 37.9727 55.0547 37.2435 54.1172 36.4492C51.9167 34.6263 49.9049 33.3372 48.082 32.582C47.0273 32.1393 45.8945 31.918 44.6836 31.918H44.2344C44.1562 31.918 44 31.931 43.7656 31.957L49.7227 4.24219C47.9258 4.98438 46.5456 6.09115 45.582 7.5625C44.6185 9.02083 44.1367 10.8177 44.1367 12.9531C44.1367 13.7734 44.2279 14.444 44.4102 14.9648C44.4622 15.1341 44.5273 15.2839 44.6055 15.4141C44.6576 15.5052 44.6836 15.5964 44.6836 15.6875C43.2383 15.6875 42.1836 15.3945 41.5195 14.8086C40.7773 14.1836 40.4062 13.181 40.4062 11.8008C40.4062 10.9284 40.5951 10.069 40.9727 9.22266C41.3503 8.36328 41.8841 7.53646 42.5742 6.74219C43.2383 5.97396 44.0195 5.26432 44.918 4.61328C45.8294 3.94922 46.806 3.3763 47.8477 2.89453C50.0612 1.89193 52.2617 1.39062 54.4492 1.39062C54.931 1.39062 55.4648 1.42318 56.0508 1.48828L49.8984 30.1992C50.5365 30.3424 51.181 30.5573 51.832 30.8438C52.4961 31.1302 53.2513 31.5013 54.0977 31.957L56.2852 33.1289C57.9779 34.0534 59.5078 34.6914 60.875 35.043C61.6562 35.2513 62.4766 35.3555 63.3359 35.3555C64.5469 35.3555 65.6667 35.1406 66.6953 34.7109C66.4609 36.6641 65.9857 38.194 65.2695 39.3008C64.918 39.8477 64.5078 40.2643 64.0391 40.5508C63.5833 40.8503 63.082 41 62.5352 41ZM62.9648 31.7227C61.7148 31.7227 60.6211 31.5339 59.6836 31.1562C58.7461 30.7917 57.9714 30.2708 57.3594 29.5938C56.7734 28.9557 56.3307 28.2135 56.0312 27.3672C55.7448 26.5208 55.6016 25.6224 55.6016 24.6719C55.6016 23.6172 55.7708 22.543 56.1094 21.4492C56.4479 20.3424 56.9362 19.3138 57.5742 18.3633C58.2253 17.3737 59.0065 16.5273 59.918 15.8242C60.8424 15.1211 61.8711 14.6198 63.0039 14.3203C62.1706 13.7214 61.5521 13.0052 61.1484 12.1719C60.7578 11.3385 60.5625 10.4531 60.5625 9.51562C60.5625 8.48698 60.7773 7.46484 61.207 6.44922C61.6497 5.42057 62.2617 4.49609 63.043 3.67578C63.8503 2.81641 64.7878 2.14583 65.8555 1.66406C66.9362 1.16927 68.0951 0.921875 69.332 0.921875C70.1263 0.921875 70.875 1.03255 71.5781 1.25391C72.2812 1.46224 72.8867 1.77474 73.3945 2.19141C73.9284 2.62109 74.3385 3.14844 74.625 3.77344C74.9115 4.39844 75.0547 5.11458 75.0547 5.92188C75.0547 6.50781 74.9766 7.05469 74.8203 7.5625C74.6641 8.07031 74.4492 8.51302 74.1758 8.89062C73.9023 9.26823 73.5833 9.5612 73.2188 9.76953C72.8542 9.97786 72.4766 10.082 72.0859 10.082C71.3568 10.082 70.7318 9.72396 70.2109 9.00781C70.4323 8.92969 70.6536 8.77344 70.875 8.53906C71.0964 8.29167 71.2917 7.9987 71.4609 7.66016C71.6172 7.33464 71.7409 6.98307 71.832 6.60547C71.9232 6.22786 71.9688 5.86328 71.9688 5.51172C71.9688 4.75651 71.7409 4.17708 71.2852 3.77344C70.9076 3.44792 70.3997 3.28516 69.7617 3.28516C69.1888 3.28516 68.6484 3.44141 68.1406 3.75391C67.6328 4.06641 67.1966 4.49609 66.832 5.04297C66.4674 5.57682 66.181 6.18229 65.9727 6.85938C65.7773 7.53646 65.6797 8.22656 65.6797 8.92969C65.6797 10.1927 65.9922 11.2799 66.6172 12.1914C67.2943 13.207 68.3294 13.9036 69.7227 14.2812C68.3685 14.5807 67.1185 15.2708 65.9727 16.3516C64.944 17.3411 64.1172 18.5326 63.4922 19.9258C62.8802 21.319 62.5742 22.6211 62.5742 23.832C62.5742 25.043 62.8672 26 63.4531 26.7031C64.1042 27.4844 65.0742 27.875 66.3633 27.875C67.0013 27.875 67.6719 27.7904 68.375 27.6211C69.0911 27.4388 69.7747 27.1784 70.4258 26.8398C71.9362 26.0716 73.0495 25.056 73.7656 23.793L74.6836 24.2031C73.6289 26.5078 72.0208 28.3438 69.8594 29.7109C68.8177 30.362 67.7109 30.8568 66.5391 31.1953C65.3672 31.5469 64.1758 31.7227 62.9648 31.7227ZM83.1992 31.6445C81.6888 31.6445 80.3932 31.4622 79.3125 31.0977C78.2318 30.7461 77.3333 30.1862 76.6172 29.418C75.888 28.6367 75.3411 27.6211 74.9766 26.3711C74.625 25.1081 74.4492 23.5846 74.4492 21.8008C74.4492 19.7826 74.6836 17.6797 75.1523 15.4922C75.6992 12.9531 76.4805 10.681 77.4961 8.67578C78.681 6.34505 80.1198 4.52865 81.8125 3.22656C83.7396 1.74219 85.9401 1 88.4141 1C90.4062 1 91.9883 1.41667 93.1602 2.25C94.4492 3.16146 95.0938 4.52865 95.0938 6.35156C95.0938 7.4974 94.8854 8.3763 94.4688 8.98828C93.974 9.69141 93.2448 10.043 92.2812 10.043C91.8776 10.043 91.4805 9.97135 91.0898 9.82812C90.7122 9.6849 90.3542 9.41146 90.0156 9.00781C90.25 8.89062 90.4779 8.70833 90.6992 8.46094C90.9206 8.20052 91.1159 7.90104 91.2852 7.5625C91.6628 6.80729 91.8516 6.05859 91.8516 5.31641C91.8516 4.60026 91.6693 4.03385 91.3047 3.61719C90.875 3.1224 90.2435 2.875 89.4102 2.875C88.694 2.875 87.9844 3.14193 87.2812 3.67578C86.5911 4.19661 85.9271 4.9388 85.2891 5.90234C84.6771 6.82682 84.1107 7.90755 83.5898 9.14453C83.069 10.3815 82.6263 11.6966 82.2617 13.0898C81.8971 14.4961 81.6107 15.9284 81.4023 17.3867C81.194 18.8451 81.0898 20.2383 81.0898 21.5664C81.0898 22.556 81.1615 23.4219 81.3047 24.1641C81.4609 24.9062 81.7083 25.5378 82.0469 26.0586C82.7891 27.2174 84.0716 27.7969 85.8945 27.7969C87.457 27.7969 88.9089 27.4518 90.25 26.7617C91.5911 26.0586 92.737 25.069 93.6875 23.793L94.6055 24.2031C94.0977 25.4792 93.3945 26.599 92.4961 27.5625C91.6107 28.513 90.6081 29.3008 89.4883 29.9258C88.4596 30.4987 87.3984 30.9284 86.3047 31.2148C85.2109 31.5013 84.1758 31.6445 83.1992 31.6445ZM105.523 4.51562H105.055C102.685 4.51562 100.901 5.05599 99.7031 6.13672C98.2578 7.4388 97.5352 9.59375 97.5352 12.6016C97.5352 13.4349 97.6263 14.099 97.8086 14.5938C97.8607 14.763 97.9258 14.9128 98.0039 15.043C98.056 15.1341 98.082 15.2253 98.082 15.3164C96.6367 15.3164 95.582 15.0299 94.918 14.457C94.1758 13.832 93.8047 12.8294 93.8047 11.4492C93.8047 10.069 94.0586 8.76042 94.5664 7.52344C95.0872 6.27344 95.875 5.17969 96.9297 4.24219C98.0625 3.22656 99.5013 2.4388 101.246 1.87891C103.004 1.31901 105.074 1.03906 107.457 1.03906C108.824 1.03906 110.133 1.11719 111.383 1.27344C111.773 1.3125 112.281 1.38411 112.906 1.48828C113.948 1.68359 114.951 1.8138 115.914 1.87891C116.383 1.93099 116.975 1.95703 117.691 1.95703C118.577 1.95703 119.423 1.87891 120.23 1.72266C121.038 1.56641 121.741 1.36458 122.34 1.11719C122.275 2.86198 121.826 4.14453 120.992 4.96484C120.172 5.78516 118.954 6.19531 117.34 6.19531C116.467 6.19531 115.589 6.1237 114.703 5.98047C113.818 5.83724 112.626 5.61589 111.129 5.31641L105.602 31H99.8594L105.523 4.51562ZM139.371 5.55078L145.289 4.76953L142.457 18.1289C143.72 18.0378 144.924 17.4518 146.07 16.3711C147.112 15.3945 147.939 14.1576 148.551 12.6602C149.15 11.2279 149.449 9.76953 149.449 8.28516C149.449 6.72266 149.065 5.4401 148.297 4.4375C147.88 3.92969 147.353 3.53906 146.715 3.26562C146.077 2.97917 145.335 2.83594 144.488 2.83594C142.874 2.83594 141.422 3.05729 140.133 3.5C138.857 3.94271 137.77 4.58073 136.871 5.41406C135.973 6.2474 135.289 7.26953 134.82 8.48047C134.365 9.69141 134.137 11.0521 134.137 12.5625C134.137 13.3958 134.228 14.0599 134.41 14.5547C134.462 14.724 134.527 14.8737 134.605 15.0039C134.658 15.0951 134.684 15.1862 134.684 15.2773C133.238 15.2773 132.184 14.9909 131.52 14.418C130.777 13.793 130.406 12.7839 130.406 11.3906C130.406 10.5182 130.595 9.65885 130.973 8.8125C131.35 7.95312 131.884 7.1263 132.574 6.33203C133.225 5.57682 134 4.8737 134.898 4.22266C135.81 3.55859 136.793 2.98568 137.848 2.50391C140.061 1.5013 142.262 1 144.449 1C147.535 1 149.931 1.80078 151.637 3.40234C152.392 4.11849 152.952 4.94531 153.316 5.88281C153.694 6.82031 153.883 7.81641 153.883 8.87109C153.883 10.1602 153.616 11.4427 153.082 12.7188C152.561 13.9948 151.806 15.1341 150.816 16.1367C149.775 17.2044 148.531 18.0508 147.086 18.6758C145.654 19.2878 144.072 19.5938 142.34 19.5938H142.125L139.684 31H133.941L139.371 5.55078ZM175.465 41C174.579 41 173.688 40.7917 172.789 40.375C171.891 39.9714 170.921 39.3919 169.879 38.6367C168.928 37.9727 167.984 37.2435 167.047 36.4492C164.846 34.6263 162.835 33.3372 161.012 32.582C159.957 32.1393 158.824 31.918 157.613 31.918H157.164C157.086 31.918 156.93 31.931 156.695 31.957L162.652 4.24219C160.855 4.98438 159.475 6.09115 158.512 7.5625C157.548 9.02083 157.066 10.8177 157.066 12.9531C157.066 13.7734 157.158 14.444 157.34 14.9648C157.392 15.1341 157.457 15.2839 157.535 15.4141C157.587 15.5052 157.613 15.5964 157.613 15.6875C156.168 15.6875 155.113 15.3945 154.449 14.8086C153.707 14.1836 153.336 13.181 153.336 11.8008C153.336 10.9284 153.525 10.069 153.902 9.22266C154.28 8.36328 154.814 7.53646 155.504 6.74219C156.168 5.97396 156.949 5.26432 157.848 4.61328C158.759 3.94922 159.736 3.3763 160.777 2.89453C162.991 1.89193 165.191 1.39062 167.379 1.39062C167.861 1.39062 168.395 1.42318 168.98 1.48828L162.828 30.1992C163.466 30.3424 164.111 30.5573 164.762 30.8438C165.426 31.1302 166.181 31.5013 167.027 31.957L169.215 33.1289C170.908 34.0534 172.438 34.6914 173.805 35.043C174.586 35.2513 175.406 35.3555 176.266 35.3555C177.477 35.3555 178.596 35.1406 179.625 34.7109C179.391 36.6641 178.915 38.194 178.199 39.3008C177.848 39.8477 177.438 40.2643 176.969 40.5508C176.513 40.8503 176.012 41 175.465 41ZM176.969 35.5508C176.24 35.5508 175.602 35.5182 175.055 35.4531C174.508 35.388 173.993 35.2318 173.512 34.9844C172.249 34.3724 171.617 33.1484 171.617 31.3125C171.617 30.4271 171.754 29.3659 172.027 28.1289C172.314 26.8919 172.717 25.5573 173.238 24.125C174.384 20.974 175.803 17.9466 177.496 15.043C176.168 15.1211 175.113 15.3229 174.332 15.6484C173.564 15.9609 173.056 16.4492 172.809 17.1133C172.926 17.1133 173.043 17.25 173.16 17.5234C173.277 17.7969 173.336 18.0768 173.336 18.3633C173.336 18.832 173.121 19.2096 172.691 19.4961C172.262 19.7826 171.728 19.9258 171.09 19.9258C170.374 19.9258 169.788 19.7305 169.332 19.3398C168.85 18.9362 168.609 18.3568 168.609 17.6016C168.609 16.9375 168.811 16.306 169.215 15.707C169.618 15.0951 170.191 14.5677 170.934 14.125C171.689 13.6693 172.561 13.3177 173.551 13.0703C174.553 12.8099 175.628 12.6797 176.773 12.6797C177.333 12.6797 178.03 12.7188 178.863 12.7969C181.103 9.26823 183.342 6.5013 185.582 4.49609C188.186 2.16536 190.582 1 192.77 1C194.072 1 195.126 1.1888 195.934 1.56641L189.664 31H183.902L186.969 16.4883C186.005 16.0456 185.1 15.7135 184.254 15.4922C183.421 15.2708 182.542 15.1211 181.617 15.043C180.107 18.3112 178.87 21.651 177.906 25.0625C176.917 28.487 176.422 31.2409 176.422 33.3242C176.422 34.3529 176.604 35.0951 176.969 35.5508ZM189.664 3.83203C188.505 4.45703 187.288 5.63542 186.012 7.36719C184.762 9.08594 183.577 11.0716 182.457 13.3242C184.28 13.6758 185.908 14.138 187.34 14.7109L189.664 3.83203ZM208.746 18.6758L204.898 3.67578C202.997 4.39193 201.526 5.50521 200.484 7.01562C199.456 8.51302 198.941 10.362 198.941 12.5625C198.941 13.3958 199.033 14.0599 199.215 14.5547C199.267 14.724 199.332 14.8737 199.41 15.0039C199.462 15.0951 199.488 15.1862 199.488 15.2773C198.043 15.2773 196.988 14.9909 196.324 14.418C195.582 13.793 195.211 12.7839 195.211 11.3906C195.211 10.5182 195.4 9.65885 195.777 8.8125C196.155 7.95312 196.689 7.1263 197.379 6.33203C198.03 5.57682 198.805 4.8737 199.703 4.22266C200.615 3.55859 201.598 2.98568 202.652 2.50391C204.866 1.5013 207.066 1 209.254 1C209.853 1 210.387 1.02604 210.855 1.07812L214.332 15.3945L220.25 1.19531H222.906L215.133 18.6758L212.496 31H206.09L208.746 18.6758ZM227.418 31.7227C226.168 31.7227 225.074 31.5339 224.137 31.1562C223.199 30.7917 222.424 30.2708 221.812 29.5938C221.227 28.9557 220.784 28.2135 220.484 27.3672C220.198 26.5208 220.055 25.6224 220.055 24.6719C220.055 23.6172 220.224 22.543 220.562 21.4492C220.901 20.3424 221.389 19.3138 222.027 18.3633C222.678 17.3737 223.46 16.5273 224.371 15.8242C225.296 15.1211 226.324 14.6198 227.457 14.3203C226.624 13.7214 226.005 13.0052 225.602 12.1719C225.211 11.3385 225.016 10.4531 225.016 9.51562C225.016 8.48698 225.23 7.46484 225.66 6.44922C226.103 5.42057 226.715 4.49609 227.496 3.67578C228.303 2.81641 229.241 2.14583 230.309 1.66406C231.389 1.16927 232.548 0.921875 233.785 0.921875C234.579 0.921875 235.328 1.03255 236.031 1.25391C236.734 1.46224 237.34 1.77474 237.848 2.19141C238.382 2.62109 238.792 3.14844 239.078 3.77344C239.365 4.39844 239.508 5.11458 239.508 5.92188C239.508 6.50781 239.43 7.05469 239.273 7.5625C239.117 8.07031 238.902 8.51302 238.629 8.89062C238.355 9.26823 238.036 9.5612 237.672 9.76953C237.307 9.97786 236.93 10.082 236.539 10.082C235.81 10.082 235.185 9.72396 234.664 9.00781C234.885 8.92969 235.107 8.77344 235.328 8.53906C235.549 8.29167 235.745 7.9987 235.914 7.66016C236.07 7.33464 236.194 6.98307 236.285 6.60547C236.376 6.22786 236.422 5.86328 236.422 5.51172C236.422 4.75651 236.194 4.17708 235.738 3.77344C235.361 3.44792 234.853 3.28516 234.215 3.28516C233.642 3.28516 233.102 3.44141 232.594 3.75391C232.086 4.06641 231.65 4.49609 231.285 5.04297C230.921 5.57682 230.634 6.18229 230.426 6.85938C230.23 7.53646 230.133 8.22656 230.133 8.92969C230.133 10.1927 230.445 11.2799 231.07 12.1914C231.747 13.207 232.783 13.9036 234.176 14.2812C232.822 14.5807 231.572 15.2708 230.426 16.3516C229.397 17.3411 228.57 18.5326 227.945 19.9258C227.333 21.319 227.027 22.6211 227.027 23.832C227.027 25.043 227.32 26 227.906 26.7031C228.557 27.4844 229.527 27.875 230.816 27.875C231.454 27.875 232.125 27.7904 232.828 27.6211C233.544 27.4388 234.228 27.1784 234.879 26.8398C236.389 26.0716 237.503 25.056 238.219 23.793L239.137 24.2031C238.082 26.5078 236.474 28.3438 234.312 29.7109C233.271 30.362 232.164 30.8568 230.992 31.1953C229.82 31.5469 228.629 31.7227 227.418 31.7227ZM255.582 31.6836C254.423 31.6836 253.583 31.3906 253.062 30.8047C252.659 30.362 252.457 29.763 252.457 29.0078C252.457 28.4089 252.548 27.7188 252.73 26.9375C252.913 26.1432 253.18 25.1211 253.531 23.8711C253.883 22.6081 254.143 21.5664 254.312 20.7461C254.495 19.9258 254.586 19.1706 254.586 18.4805C254.586 17.6341 254.41 16.9766 254.059 16.5078C253.668 16.013 253.043 15.7656 252.184 15.7656C251.702 15.7656 251.259 15.8177 250.855 15.9219L247.652 31H241.91L247.34 5.55078L253.258 4.76953L251.305 14.0078H251.617C252.411 14.0078 253.16 13.7995 253.863 13.3828C254.566 12.9531 255.185 12.3802 255.719 11.6641C256.214 10.987 256.598 10.2383 256.871 9.41797C257.158 8.59766 257.301 7.80339 257.301 7.03516C257.301 6.46224 257.21 5.92188 257.027 5.41406C256.858 4.90625 256.604 4.46354 256.266 4.08594C255.497 3.2526 254.378 2.83594 252.906 2.83594C251.279 2.83594 249.801 3.05729 248.473 3.5C247.158 3.92969 246.025 4.56771 245.074 5.41406C244.111 6.26042 243.375 7.28906 242.867 8.5C242.359 9.71094 242.105 11.0651 242.105 12.5625C242.105 13.3958 242.197 14.0599 242.379 14.5547C242.431 14.724 242.496 14.8737 242.574 15.0039C242.626 15.0951 242.652 15.1862 242.652 15.2773C241.207 15.2773 240.152 14.9909 239.488 14.418C238.746 13.793 238.375 12.7839 238.375 11.3906C238.375 10.5182 238.564 9.65885 238.941 8.8125C239.319 7.95312 239.853 7.1263 240.543 6.33203C241.194 5.57682 241.969 4.8737 242.867 4.22266C243.779 3.55859 244.762 2.98568 245.816 2.50391C248.03 1.5013 250.23 1 252.418 1C253.928 1 255.257 1.17578 256.402 1.52734C257.561 1.86589 258.531 2.34766 259.312 2.97266C260.042 3.55859 260.589 4.23568 260.953 5.00391C261.318 5.75911 261.5 6.5599 261.5 7.40625C261.5 8.68229 261.129 9.91927 260.387 11.1172C259.553 12.4453 258.486 13.487 257.184 14.2422C258.212 14.5547 258.935 15.056 259.352 15.7461C259.742 16.4102 259.938 17.2435 259.938 18.2461C259.938 18.9883 259.853 19.7826 259.684 20.6289C259.514 21.4622 259.273 22.4518 258.961 23.5977C258.609 24.8737 258.355 25.8503 258.199 26.5273C258.056 27.1914 257.984 27.8034 257.984 28.3633C257.984 28.9883 258.121 29.5417 258.395 30.0234C258.681 30.4922 259.065 30.8177 259.547 31C257.945 31.4557 256.624 31.6836 255.582 31.6836ZM271.988 31.7227C270.712 31.7227 269.56 31.5534 268.531 31.2148C267.503 30.8893 266.617 30.4141 265.875 29.7891C265.12 29.1641 264.54 28.4219 264.137 27.5625C263.746 26.7031 263.551 25.7526 263.551 24.7109C263.551 23.8385 263.688 23.0182 263.961 22.25C264.247 21.4688 264.645 20.7917 265.152 20.2188C265.66 19.6458 266.253 19.2031 266.93 18.8906C267.607 18.5651 268.323 18.4023 269.078 18.4023C270.016 18.4023 270.803 18.6367 271.441 19.1055C272.079 19.5742 272.477 20.2188 272.633 21.0391C271.24 21.0391 270.133 21.4102 269.312 22.1523C268.922 22.5039 268.616 22.9336 268.395 23.4414C268.186 23.9492 268.082 24.5091 268.082 25.1211C268.082 26.293 268.421 27.224 269.098 27.9141C269.788 28.5911 270.712 28.9297 271.871 28.9297C272.561 28.9297 273.206 28.806 273.805 28.5586C274.404 28.2982 274.924 27.9466 275.367 27.5039C275.81 27.0612 276.148 26.5339 276.383 25.9219C276.63 25.2969 276.754 24.6328 276.754 23.9297C276.754 22.6276 276.311 21.2734 275.426 19.8672C275.074 19.3203 274.684 18.7865 274.254 18.2656C273.837 17.7318 273.251 17.0286 272.496 16.1562C271.819 15.375 271.253 14.6979 270.797 14.125C270.341 13.5521 269.931 12.9661 269.566 12.3672C268.681 10.9219 268.238 9.5026 268.238 8.10938C268.238 7.06771 268.46 6.10417 268.902 5.21875C269.345 4.32031 269.977 3.53906 270.797 2.875C271.617 2.21094 272.574 1.69661 273.668 1.33203C274.762 0.967448 275.94 0.785156 277.203 0.785156C279.352 0.785156 281.077 1.29297 282.379 2.30859C283.004 2.80339 283.479 3.39583 283.805 4.08594C284.143 4.77604 284.312 5.54427 284.312 6.39062C284.312 7.4974 284.033 8.40234 283.473 9.10547C283.212 9.44401 282.887 9.70443 282.496 9.88672C282.118 10.069 281.715 10.1602 281.285 10.1602C280.283 10.1602 279.469 9.74349 278.844 8.91016C279.352 8.54557 279.749 8.0638 280.035 7.46484C280.335 6.85286 280.484 6.20182 280.484 5.51172C280.484 4.65234 280.23 3.97526 279.723 3.48047C279.215 2.97266 278.518 2.71875 277.633 2.71875C277.099 2.71875 276.604 2.81641 276.148 3.01172C275.706 3.20703 275.328 3.48698 275.016 3.85156C274.69 4.21615 274.436 4.64583 274.254 5.14062C274.085 5.63542 274 6.17578 274 6.76172C274 7.59505 274.195 8.39583 274.586 9.16406C274.977 9.93229 275.536 10.7331 276.266 11.5664C276.917 12.3346 277.62 13.0964 278.375 13.8516C280.133 15.6745 281.376 17.4518 282.105 19.1836C282.535 20.2122 282.75 21.3451 282.75 22.582C282.75 23.8841 282.483 25.0951 281.949 26.2148C281.415 27.3216 280.654 28.2852 279.664 29.1055C278.674 29.9388 277.522 30.5833 276.207 31.0391C274.892 31.4948 273.486 31.7227 271.988 31.7227Z" fill="#11327D"/>
</svg>
