<svg width="79" height="79" viewBox="0 0 79 79" fill="none" xmlns="http://www.w3.org/2000/svg">
<path d="M39.4858 39.3633C45.7759 39.3633 50.875 34.2642 50.875 27.9741C50.875 21.6841 45.7759 16.585 39.4858 16.585C33.1958 16.585 28.0967 21.6841 28.0967 27.9741C28.0967 34.2642 33.1958 39.3633 39.4858 39.3633Z" fill="#2F5BBD"/>
<path d="M39.5002 71.3419C39.5002 71.3419 36.1087 64.7882 24.2796 41.8365C21.9447 37.306 18.9932 33.3802 18.9932 28.0938C18.9932 16.7704 28.1736 7.58887 39.4981 7.58887V16.3974C39.4981 16.3974 28.0233 16.9679 28.0233 27.8063C28.0233 38.6446 39.4981 39.608 39.4981 39.608L39.5002 71.3419Z" fill="#D0CFCE"/>
<path d="M39.4716 71.3381C39.4716 71.3381 42.7611 64.7361 54.6923 41.8316C56.9559 37.4855 59.9776 33.3764 59.9776 28.09C59.9776 16.7644 50.7972 7.58398 39.4727 7.58398L39.1611 16.3969C39.1611 16.3969 51.4248 16.6898 51.2394 28.1756C51.055 39.6613 39.1611 39.6075 39.1611 39.6075L39.4716 71.3381Z" fill="#D0CFCE"/>
<path d="M40.4086 8.28112C40.4086 8.28112 51.1065 12.7095 53.3986 25.0533C55.6358 37.1008 43.3404 58.1532 40.0487 68.76C37.3078 77.5915 52.9707 45.3431 58.2889 34.3028C59.5836 31.6168 60.0554 28.5995 59.5485 25.6611C58.3953 18.979 54.374 8.07813 40.4086 8.28112Z" fill="#9B9B9A"/>
<path d="M39.5018 39.6071C45.9112 39.6071 51.1071 34.4112 51.1071 28.0018C51.1071 21.5924 45.9112 16.3965 39.5018 16.3965C33.0924 16.3965 27.8965 21.5924 27.8965 28.0018C27.8965 34.4112 33.0924 39.6071 39.5018 39.6071Z" stroke="black" stroke-width="0.5" stroke-linecap="round" stroke-linejoin="round"/>
<path d="M39.5002 71.3414C39.5002 71.3414 36.1087 64.7877 24.2796 41.836C21.9447 37.3055 18.9932 33.3797 18.9932 28.0933C18.9932 16.7699 28.1736 7.58837 39.4981 7.58837M39.5024 71.3381C39.5024 71.3381 42.7919 64.7361 54.7231 41.8316C56.9878 37.4855 60.0095 33.3764 60.0095 28.09C60.0095 16.7644 50.828 7.58398 39.5035 7.58398" stroke="black" stroke-width="0.5" stroke-linecap="round" stroke-linejoin="round"/>
</svg>
