<svg width="34" height="34" viewBox="0 0 34 34" fill="none" xmlns="http://www.w3.org/2000/svg">
<path d="M10.88 25.5L17 19.38L23.12 25.5L25.5 23.12L19.38 17L25.5 10.88L23.12 8.5L17 14.62L10.88 8.5L8.5 10.88L14.62 17L8.5 23.12L10.88 25.5ZM17 34C14.6483 34 12.4383 33.5535 10.37 32.6604C8.30166 31.7673 6.5025 30.5564 4.9725 29.0275C3.4425 27.4986 2.23153 25.6995 1.3396 23.63C0.447669 21.5605 0.00113548 19.3505 2.1519e-06 17C-0.00113118 14.6495 0.445402 12.4395 1.3396 10.37C2.2338 8.30053 3.44477 6.50137 4.9725 4.9725C6.50023 3.44363 8.2994 2.23267 10.37 1.3396C12.4406 0.446533 14.6506 0 17 0C19.3494 0 21.5594 0.446533 23.63 1.3396C25.7006 2.23267 27.4998 3.44363 29.0275 4.9725C30.5552 6.50137 31.7667 8.30053 32.6621 10.37C33.5574 12.4395 34.0034 14.6495 34 17C33.9966 19.3505 33.55 21.5605 32.6604 23.63C31.7707 25.6995 30.5598 27.4986 29.0275 29.0275C27.4952 30.5564 25.6961 31.7679 23.63 32.6621C21.5639 33.5563 19.3539 34.0023 17 34Z" fill="#11327D"/>
</svg>
