<svg width="23" height="37" viewBox="0 0 23 37" fill="none" xmlns="http://www.w3.org/2000/svg">
<path d="M11.5004 18.5584C14.9891 18.5584 17.8172 15.7303 17.8172 12.2416C17.8172 8.75294 14.9891 5.9248 11.5004 5.9248C8.01173 5.9248 5.18359 8.75294 5.18359 12.2416C5.18359 15.7303 8.01173 18.5584 11.5004 18.5584Z" stroke="black" stroke-width="0.5" stroke-linecap="round" stroke-linejoin="round"/>
<path d="M11.5 35.8313C11.5 35.8313 9.65396 32.2641 3.21531 19.7714C1.94442 17.3055 0.337891 15.1686 0.337891 12.2912C0.337891 6.12787 5.33485 1.13032 11.4988 1.13032M11.5012 35.8295C11.5012 35.8295 13.2916 32.236 19.7858 19.769C21.0185 17.4034 22.6633 15.1668 22.6633 12.2894C22.6633 6.12489 17.6657 1.12793 11.5018 1.12793" stroke="black" stroke-width="0.5" stroke-linecap="round" stroke-linejoin="round"/>
</svg>
