<svg width="39" height="39" viewBox="0 0 39 39" fill="none" xmlns="http://www.w3.org/2000/svg">
<path d="M17.2692 12.0022C16.8982 11.7966 16.4799 11.6913 16.0557 11.6969C15.6315 11.7024 15.2161 11.8185 14.8506 12.0338C14.4851 12.2491 14.182 12.556 13.9715 12.9243C13.7609 13.2925 13.6501 13.7094 13.65 14.1336V24.8664C13.6501 25.2906 13.7609 25.7075 13.9715 26.0757C14.182 26.444 14.4851 26.7509 14.8506 26.9662C15.2161 27.1815 15.6315 27.2976 16.0557 27.3031C16.4799 27.3087 16.8982 27.2034 17.2692 26.9978L28.4954 20.7792C28.7237 20.6527 28.914 20.4673 29.0465 20.2423C29.1791 20.0174 29.2489 19.7611 29.2489 19.5C29.2489 19.2389 29.1791 18.9826 29.0465 18.7577C28.914 18.5327 28.7237 18.3473 28.4954 18.2208L17.2692 12.0022ZM19.5 0C8.73015 0 0 8.73015 0 19.5C0 30.2698 8.73015 39 19.5 39C30.2698 39 39 30.2698 39 19.5C39 8.73015 30.2698 0 19.5 0ZM2.925 19.5C2.925 15.104 4.67129 10.8881 7.77971 7.77971C10.8881 4.67129 15.104 2.925 19.5 2.925C23.896 2.925 28.1119 4.67129 31.2203 7.77971C34.3287 10.8881 36.075 15.104 36.075 19.5C36.075 23.896 34.3287 28.1119 31.2203 31.2203C28.1119 34.3287 23.896 36.075 19.5 36.075C15.104 36.075 10.8881 34.3287 7.77971 31.2203C4.67129 28.1119 2.925 23.896 2.925 19.5Z" fill="white"/>
</svg>
