<svg width="79" height="79" viewBox="0 0 79 79" fill="none" xmlns="http://www.w3.org/2000/svg">
<path d="M39.4849 39.3633C45.7749 39.3633 50.874 34.2642 50.874 27.9741C50.874 21.6841 45.7749 16.585 39.4849 16.585C33.1948 16.585 28.0957 21.6841 28.0957 27.9741C28.0957 34.2642 33.1948 39.3633 39.4849 39.3633Z" fill="#CB3A2C"/>
<path d="M39.4993 71.3419C39.4993 71.3419 36.1078 64.7882 24.2786 41.8365C21.9437 37.306 18.9922 33.3802 18.9922 28.0938C18.9922 16.7704 28.1726 7.58887 39.4971 7.58887V16.3974C39.4971 16.3974 28.0223 16.9679 28.0223 27.8063C28.0223 38.6446 39.4971 39.608 39.4971 39.608L39.4993 71.3419Z" fill="#D0CFCE"/>
<path d="M39.4707 71.3381C39.4707 71.3381 42.7601 64.7361 54.6913 41.8316C56.9549 37.4855 59.9767 33.3764 59.9767 28.09C59.9767 16.7644 50.7962 7.58398 39.4718 7.58398L39.1602 16.3969C39.1602 16.3969 51.4238 16.6898 51.2384 28.1756C51.054 39.6613 39.1602 39.6075 39.1602 39.6075L39.4707 71.3381Z" fill="#D0CFCE"/>
<path d="M40.4076 8.28112C40.4076 8.28112 51.1055 12.7095 53.3976 25.0533C55.6348 37.1008 43.3394 58.1532 40.0477 68.76C37.3068 77.5915 52.9697 45.3431 58.2879 34.3028C59.5827 31.6168 60.0545 28.5995 59.5475 25.6611C58.3944 18.979 54.373 8.07813 40.4076 8.28112Z" fill="#9B9B9A"/>
<path d="M39.4999 39.6071C45.9093 39.6071 51.1052 34.4112 51.1052 28.0018C51.1052 21.5924 45.9093 16.3965 39.4999 16.3965C33.0904 16.3965 27.8945 21.5924 27.8945 28.0018C27.8945 34.4112 33.0904 39.6071 39.4999 39.6071Z" stroke="black" stroke-width="0.5" stroke-linecap="round" stroke-linejoin="round"/>
<path d="M39.4993 71.3414C39.4993 71.3414 36.1078 64.7877 24.2786 41.836C21.9437 37.3055 18.9922 33.3797 18.9922 28.0933C18.9922 16.7699 28.1726 7.58837 39.4971 7.58837M39.5015 71.3381C39.5015 71.3381 42.7909 64.7361 54.7221 41.8316C56.9868 37.4855 60.0086 33.3764 60.0086 28.09C60.0086 16.7644 50.827 7.58398 39.5026 7.58398" stroke="black" stroke-width="0.5" stroke-linecap="round" stroke-linejoin="round"/>
</svg>
